<svg width="18" height="22" viewBox="0 0 18 22" fill="none" xmlns="http://www.w3.org/2000/svg">
<path d="M17.1136 8.93182C17.1136 15.2955 8.93182 20.75 8.93182 20.75C8.93182 20.75 0.75 15.2955 0.75 8.93182C0.75 6.76187 1.61201 4.68079 3.1464 3.1464C4.68079 1.61201 6.76186 0.75 8.93182 0.75C11.1018 0.75 13.1828 1.61201 14.7172 3.1464C16.2516 4.68079 17.1136 6.76187 17.1136 8.93182Z" stroke="currentColor" stroke-width="1.5" stroke-linecap="round" stroke-linejoin="round"/>
<path d="M8.93182 11.6591C10.438 11.6591 11.6591 10.438 11.6591 8.93182C11.6591 7.42559 10.438 6.20455 8.93182 6.20455C7.42559 6.20455 6.20455 7.42559 6.20455 8.93182C6.20455 10.438 7.42559 11.6591 8.93182 11.6591Z" stroke="currentColor" stroke-width="1.5" stroke-linecap="round" stroke-linejoin="round"/>
</svg>
